<svg width="62" height="42" viewBox="0 0 62 42" fill="none" xmlns="http://www.w3.org/2000/svg">
<path fill-rule="evenodd" clip-rule="evenodd" d="M33.0199 1.575C33.0199 1.15728 32.8068 0.756676 32.4276 0.461307C32.0484 0.165937 31.5341 0 30.9978 0C30.4616 0 29.9473 0.165937 29.5681 0.461307C29.1889 0.756676 28.9758 1.15728 28.9758 1.575V5.25H23.6538C22.7067 5.24967 21.7814 5.47139 20.9982 5.8863L16.4284 8.3097C16.3163 8.36888 16.1838 8.40034 16.0483 8.4H4.98914C4.45287 8.4 3.93856 8.56594 3.55935 8.86131C3.18015 9.15668 2.96711 9.55728 2.96711 9.975C2.96711 10.3927 3.18015 10.7933 3.55935 11.0887C3.93856 11.3841 4.45287 11.55 4.98914 11.55H9.2408L0.163231 27.678C-0.00823436 27.9927 -0.0457747 28.342 0.0561113 28.6745C0.157997 29.0071 0.393953 29.3055 0.729399 29.526C0.945083 29.6604 1.16346 29.7885 1.56248 29.9901C2.06394 30.2442 2.78109 30.5739 3.69774 30.8994C5.53105 31.5525 8.17856 32.2014 11.4516 32.2014C14.1261 32.2054 16.7705 31.7614 19.2054 30.8994C20.122 30.5739 20.8392 30.2442 21.3406 29.9901C21.745 29.7864 21.9607 29.6583 22.1764 29.5218C22.5145 29.3038 22.7524 29.0059 22.854 28.6733C22.9557 28.3407 22.9156 27.9913 22.7399 27.678L13.6596 11.55H16.0483C16.9946 11.55 17.9194 11.3274 18.7012 10.9137L23.2737 8.4903C23.3851 8.43153 23.5166 8.40008 23.6511 8.4H28.9758V38.85H16.8787C16.3424 38.85 15.8281 39.0159 15.4489 39.3113C15.0697 39.6067 14.8567 40.0073 14.8567 40.425C14.8567 40.8427 15.0697 41.2433 15.4489 41.5387C15.8281 41.8341 16.3424 42 16.8787 42H45.117C45.6533 42 46.1676 41.8341 46.5468 41.5387C46.926 41.2433 47.139 40.8427 47.139 40.425C47.139 40.0073 46.926 39.6067 46.5468 39.3113C46.1676 39.0159 45.6533 38.85 45.117 38.85H33.0199V8.4H38.3419C38.4767 8.4 38.6115 8.4315 38.7193 8.4903L43.2945 10.9137C44.0763 11.3274 45.0011 11.55 45.9474 11.55H48.3361L39.2558 27.678C39.0743 28.0005 39.0367 28.3611 39.1491 28.7021C39.2615 29.0432 39.5174 29.3451 39.8759 29.5596C39.9083 29.5785 39.8759 29.5596 39.8813 29.5596C40.1487 29.7165 40.4278 29.8609 40.7171 29.9922C41.2158 30.2274 41.9303 30.5298 42.8469 30.8322C45.2848 31.6259 47.9019 32.0315 50.5441 32.025C53.1875 32.0311 55.8056 31.6248 58.244 30.8301C59.1553 30.5298 59.8724 30.2274 60.3739 29.9922C60.6622 29.8596 60.9411 29.7152 61.2097 29.5596C61.5682 29.3451 61.8241 29.0432 61.9365 28.7021C62.0489 28.3611 62.0113 28.0005 61.8298 27.678L52.7549 11.55H57.0093C57.5455 11.55 58.0598 11.3841 58.439 11.0887C58.8182 10.7933 59.0313 10.3927 59.0313 9.975C59.0313 9.55728 58.8182 9.15668 58.439 8.86131C58.0598 8.56594 57.5455 8.4 57.0093 8.4H45.9501C45.8155 8.39992 45.6841 8.36847 45.5726 8.3097L40.9975 5.8863C40.2151 5.47179 39.2908 5.25009 38.3446 5.25H33.0199V1.575ZM4.55778 27.7158C6.67983 28.5954 9.04777 29.0534 11.4516 29.0493C13.8553 29.0534 16.2233 28.5954 18.3453 27.7158L11.4516 15.4728L4.55778 27.7158ZM43.6773 27.6654C43.8984 27.7494 44.1464 27.8397 44.4187 27.93C45.8476 28.3983 47.9371 28.875 50.5441 28.875C52.9209 28.8802 55.2684 28.4667 57.411 27.6654L50.5441 15.4707L43.6773 27.6654Z" fill="white"/>
</svg>
