<svg width="46" height="42" viewBox="0 0 46 42" fill="none" xmlns="http://www.w3.org/2000/svg">
<path fill-rule="evenodd" clip-rule="evenodd" d="M4.56952 37.4324V17.6394H7.61459V37.4324C7.61459 37.8362 7.775 38.2234 8.06053 38.509C8.34606 38.7945 8.73332 38.9549 9.13712 38.9549H36.5428C36.9466 38.9549 37.3338 38.7945 37.6194 38.509C37.9049 38.2234 38.0653 37.8362 38.0653 37.4324V17.6394H41.1104V37.4324C41.1104 38.6438 40.6291 39.8056 39.7725 40.6622C38.9159 41.5187 37.7542 42 36.5428 42H9.13712C7.92572 42 6.76393 41.5187 5.90734 40.6622C5.05075 39.8056 4.56952 38.6438 4.56952 37.4324ZM38.0653 3.9366V14.5943L31.9751 8.5042V3.9366C31.9751 3.5328 32.1356 3.14553 32.4211 2.86C32.7066 2.57447 33.0939 2.41406 33.4977 2.41406H36.5428C36.9466 2.41406 37.3338 2.57447 37.6194 2.86C37.9049 3.14553 38.0653 3.5328 38.0653 3.9366Z" fill="white"/>
<path fill-rule="evenodd" clip-rule="evenodd" d="M20.6871 0.891555C21.2581 0.320693 22.0325 0 22.8399 0C23.6474 0 24.4218 0.320693 24.9928 0.891555L45.2334 21.1291C45.5193 21.415 45.6799 21.8027 45.6799 22.207C45.6799 22.6114 45.5193 22.9991 45.2334 23.285C44.9475 23.5709 44.5597 23.7315 44.1554 23.7315C43.7511 23.7315 43.3634 23.5709 43.0775 23.285L22.8399 3.04442L2.60241 23.285C2.31652 23.5709 1.92877 23.7315 1.52446 23.7315C1.12015 23.7315 0.732395 23.5709 0.446504 23.285C0.160612 22.9991 0 22.6114 0 22.207C0 21.8027 0.160612 21.415 0.446504 21.1291L20.6871 0.891555Z" fill="white"/>
</svg>
