<svg width="42" height="42" viewBox="0 0 42 42" fill="none" xmlns="http://www.w3.org/2000/svg">
<path d="M22.575 18.375C21.525 18.1125 20.475 17.5875 19.6875 16.8C18.9 16.5375 18.6375 15.75 18.6375 15.225C18.6375 14.7 18.9 13.9125 19.425 13.65C20.2125 13.125 21 12.6 21.7875 12.8625C23.3625 12.8625 24.675 13.65 25.4625 14.7L27.825 11.55C27.0375 10.7625 26.25 10.2375 25.4625 9.7125C24.675 9.1875 23.625 8.925 22.575 8.925V5.25H19.425V8.925C18.1125 9.1875 16.8 9.975 15.75 11.025C14.7 12.3375 13.9125 13.9125 14.175 15.4875C14.175 17.0625 14.7 18.6375 15.75 19.6875C17.0625 21 18.9 21.7875 20.475 22.575C21.2625 22.8375 22.3125 23.3625 23.1 23.8875C23.625 24.4125 23.8875 25.2 23.8875 25.9875C23.8875 26.775 23.625 27.5625 23.1 28.35C22.3125 29.1375 21.2625 29.4 20.475 29.4C19.425 29.4 18.1125 29.1375 17.325 28.35C16.5375 27.825 15.75 27.0375 15.225 26.25L12.6 29.1375C13.3875 30.1875 14.175 30.975 15.225 31.7625C16.5375 32.55 18.1125 33.3375 19.6875 33.3375V36.75H22.575V32.8125C24.15 32.55 25.4625 31.7625 26.5125 30.7125C27.825 29.4 28.6125 27.3 28.6125 25.4625C28.6125 23.8875 28.0875 22.05 26.775 21C25.4625 19.6875 24.15 18.9 22.575 18.375V18.375ZM21 0C9.45 0 0 9.45 0 21C0 32.55 9.45 42 21 42C32.55 42 42 32.55 42 21C42 9.45 32.55 0 21 0ZM21 39.1125C11.025 39.1125 2.8875 30.975 2.8875 21C2.8875 11.025 11.025 2.8875 21 2.8875C30.975 2.8875 39.1125 11.025 39.1125 21C39.1125 30.975 30.975 39.1125 21 39.1125V39.1125Z" fill="white"/>
</svg>
