<svg width="70" height="30" viewBox="0 0 70 30" fill="none" xmlns="http://www.w3.org/2000/svg">
<path d="M69.9109 19.1422L68.402 13.3808C68.3055 13.0134 68.133 12.6688 67.8951 12.3676C67.6572 12.0664 67.3587 11.8149 67.0176 11.6282C66.6748 11.4387 66.2963 11.3171 65.9044 11.2706C65.5124 11.2241 65.1148 11.2536 64.7348 11.3575L47.0325 16.1863L35.0002 11.2823L50.2253 7.51022C51.2646 6.61352 52.0175 5.44836 52.3953 4.15187L51.2014 0L19.4445 3.76075H0V26.3253H19.4445L36.7696 29.9506C37.7115 30.0335 38.6601 30.012 39.5969 29.8867L67.8304 22.5382C68.571 22.3464 69.2047 21.8821 69.5959 21.2445C69.7891 20.9307 69.9164 20.5832 69.9704 20.2218C70.0245 19.8604 70.0043 19.4923 69.9109 19.1385V19.1422ZM11.6667 22.5645H3.88891V7.5215H11.6667V22.5645ZM38.5858 26.2576C38.4105 26.3017 38.2302 26.3245 38.0491 26.3253C37.8988 26.3258 37.7488 26.3107 37.6019 26.2801L19.4445 22.4254V7.59672L47.9464 4.18196L27.2224 11.2823L45.5819 19.6762L46.8147 20.1539L48.0903 19.8041L64.8748 15.2273L65.9015 19.146L38.5858 26.2576Z" fill="white"/>
</svg>
